<svg xmlns="http://www.w3.org/2000/svg" class="transition duration-300 ease-in-out delay-150" viewBox="0 0 1440 700"><defs><linearGradient id="a" x1="0%" x2="100%" y1="50%" y2="50%"><stop offset="5%" stop-color="#002bdc"/><stop offset="95%" stop-color="#32ded4"/></linearGradient></defs><path fill="url(#a)" fill-opacity=".265" d="M0 700V140c141.714 17.929 283.429 35.857 387 22 103.571-13.857 169-59.5 291-65s300.571 29.143 437 43c136.429 13.857 230.714 6.929 325 0v560Z" class="transition-all duration-300 ease-in-out delay-150 path-0" transform="rotate(-180 720 350)"/><path fill="url(#a)" fill-opacity=".4" d="M0 700V280c75.714-21.536 151.429-43.071 296-35 144.571 8.071 358 45.75 491 63s185.571 14.071 281 6 233.714-21.036 372-34v420Z" class="transition-all duration-300 ease-in-out delay-150 path-1" transform="rotate(-180 720 350)"/><path fill="url(#a)" fill-opacity=".53" d="M0 700V420c92.679-11.321 185.357-22.643 300-28 114.643-5.357 251.25-4.75 402 12s315.643 49.643 441 55c125.357 5.357 211.179-16.821 297-39v280Z" class="transition-all duration-300 ease-in-out delay-150 path-2" transform="rotate(-180 720 350)"/><path fill="url(#a)" d="M0 700V560c130.786-22.607 261.571-45.214 388-39 126.429 6.214 248.5 41.25 368 59s236.429 18.214 350 12c113.571-6.214 223.786-19.107 334-32v140Z" class="transition-all duration-300 ease-in-out delay-150 path-3" transform="rotate(-180 720 350)"/></svg>