<svg width="74" height="74" viewBox="0 0 74 74" fill="none" xmlns="http://www.w3.org/2000/svg">
<path d="M64.7499 64.7501H39.3124C38.0862 64.7488 36.9105 64.2612 36.0434 63.3941C35.1763 62.527 34.6887 61.3513 34.6874 60.1251V46.25C34.6887 45.0238 35.1763 43.8481 36.0434 42.981C36.9105 42.1139 38.0862 41.6263 39.3124 41.625H64.7499C65.976 41.6269 67.1513 42.1147 68.0183 42.9817C68.8852 43.8487 69.3731 45.024 69.3749 46.25V60.1251C69.3731 61.3511 68.8852 62.5264 68.0183 63.3934C67.1513 64.2604 65.976 64.7482 64.7499 64.7501ZM39.3124 46.25V60.1251H64.7546L64.7499 46.25H39.3124ZM27.7499 23.125V31.4177L17.8224 21.4901L14.5525 24.76L24.4801 34.6875H16.1874V39.3125H32.3749V23.125H27.7499Z" fill="white"/>
<path d="M30.0625 50.875H9.25C8.02375 50.8738 6.84807 50.3861 5.98098 49.519C5.11389 48.6519 4.62622 47.4762 4.625 46.25V16.1875C4.62622 14.9612 5.11389 13.7856 5.98098 12.9185C6.84807 12.0514 8.02375 11.5637 9.25 11.5625H60.125C61.3512 11.5637 62.5269 12.0514 63.394 12.9185C64.2611 13.7856 64.7488 14.9612 64.75 16.1875V37H60.125V16.1875H9.25V46.25H30.0625V50.875Z" fill="white"/>
</svg>
