<svg width="76" height="104" viewBox="0 0 76 104" fill="none" xmlns="http://www.w3.org/2000/svg">
<path d="M37.5422 35.4479C35.8761 35.4064 34.3548 34.7842 33.0872 33.7886V46.1091L42.3594 50.3404V33.8093C41.0012 34.8879 39.3351 35.5101 37.5422 35.4479Z" fill="#E8F3FB"/>
<path d="M42.359 0L37.7229 5.30985L33.0867 0H0V10.6197V18.6467L9.07304 10.6197H33.0867V18.5223C34.445 17.4229 36.1292 16.8007 37.9221 16.8629C39.5882 16.9044 41.1094 17.5059 42.3771 18.5223V10.6197H66.3908L75.4638 18.6467V10.6197V0H42.359Z" fill="#E8F3FB"/>
<path d="M51.5947 25.1403C51.8483 25.3892 52.0113 25.721 52.0294 26.1151C52.0475 26.5299 51.9207 26.9448 51.6672 27.2559L51.6491 27.2766C51.142 27.8989 50.5625 28.4174 50.0192 28.9152C49.7294 29.1641 49.4397 29.413 49.1499 29.6412H60.9213V58.4512L67.2054 61.3343V29.6412V22.4438H48.335C49.4216 23.232 50.5263 24.1239 51.5947 25.1403Z" fill="#E8F3FB"/>
<path d="M67.2064 65.3789L15.1586 42.0239V29.6412H26.6946C25.771 28.9775 24.8655 28.2515 23.96 27.4426C23.4167 26.9655 23.2719 26.1359 23.6159 25.4929C23.6522 25.4306 23.6884 25.3684 23.7427 25.3062V25.2854L23.8152 25.2025C24.3403 24.5595 24.9198 24.0409 25.4813 23.5431C25.934 23.1491 26.3867 22.7757 26.8395 22.4438H15.1586H8.87451V29.6412L8.89262 46.9397L60.9223 70.0251V76.7039L42.3778 91.9904V66.0219L33.1055 61.8944V91.866L15.1767 79.4832V54.137L8.89262 51.4821V83.4656V83.5693L32.6528 99.9967L32.5984 100.038L38.4479 104L67.1883 80.3959L67.134 80.3129H67.1883V65.3789H67.2064Z" fill="#E8F3FB"/>
<path d="M31.3683 23.2303C30.5715 25.5119 30.7526 28.1668 31.8754 30.2825C31.4951 30.1373 31.1329 29.9506 30.7888 29.7225C30.7345 29.598 30.6983 29.4736 30.6439 29.3491C30.2093 28.0839 30.0463 26.6942 30.155 25.3252C30.2455 24.2674 30.5172 23.2304 30.9337 22.2762C30.9518 22.214 30.988 22.1518 31.0061 22.1103C31.0061 22.1103 31.0061 22.1103 30.988 22.1103C30.5172 22.3385 30.0463 22.5874 29.5573 22.8777C28.8873 23.2718 28.2172 23.7074 27.5834 24.2052C27.3117 24.4126 27.0401 24.62 26.7865 24.8482C26.7684 24.8689 26.7503 24.8897 26.7322 24.8897C26.696 24.9104 26.6779 24.9519 26.6417 24.9726C26.5873 25.0141 26.533 25.0763 26.4787 25.1178C26.37 25.2215 26.2614 25.3045 26.1527 25.4082C25.8448 25.6986 25.5188 25.989 25.2291 26.3208C25.4645 26.5283 25.6999 26.7357 25.9535 26.9431C28.3802 28.9343 31.0786 30.5521 33.9943 31.3611C36.1856 31.9626 38.5217 32.087 40.713 31.6929C41.4555 31.5477 42.198 31.3611 42.9224 31.1122C42.5783 31.6514 42.1618 32.0455 41.7272 32.3359C41.1839 32.4604 40.6406 32.5641 40.0792 32.647C37.6525 32.9582 35.1895 32.6885 32.8533 31.8796C29.7928 30.8425 26.9857 28.9758 24.4685 26.7149C24.3055 26.5697 24.233 26.3416 24.3417 26.1342C24.3598 26.1134 24.3779 26.0927 24.396 26.0719C24.396 26.0719 24.396 26.0719 24.4141 26.0512L24.4323 26.0305C24.9031 25.4497 25.4464 24.9519 25.9897 24.4748C27.185 23.417 28.4708 22.5044 29.8471 21.7784C30.4447 21.4673 31.0424 21.1769 31.64 20.9488C31.7486 20.7828 31.8573 20.6169 31.966 20.4717C32.3101 20.0154 32.6904 19.6006 33.1069 19.248C33.5415 18.8746 33.9943 18.5635 34.4832 18.3146C34.6643 18.2109 34.8454 18.1279 35.0265 18.0449C35.1171 18.0035 35.2257 17.962 35.3163 17.9205C35.4068 17.879 35.4974 17.8583 35.5879 17.8375C35.769 17.7753 35.9501 17.7131 36.1493 17.6716C37.58 17.319 39.1012 17.4227 40.4957 18.0449C40.9485 18.2524 41.365 18.4805 41.7634 18.7709L41.9264 18.8954C42.1799 19.082 42.4335 19.2894 42.6508 19.5176C42.9224 19.7872 43.1941 20.0776 43.4295 20.3888C43.4114 20.3888 43.4114 20.3888 43.3933 20.368C42.9405 20.2228 42.4878 20.0984 41.9988 20.0154C41.3831 19.4554 40.6949 18.9991 39.9343 18.7087C39.9343 18.7087 39.8075 18.6672 39.7532 18.6465C38.3587 18.1487 36.8194 18.1901 35.4431 18.7294C35.4249 18.7294 35.4068 18.7502 35.3887 18.7502C34.7911 18.9991 34.2297 19.3309 33.7045 19.7458C33.6321 19.808 33.5596 19.8702 33.4872 19.9324C33.451 19.9739 33.3966 20.0154 33.3604 20.0569C33.3061 20.0984 33.2699 20.1399 33.2337 20.1813C32.7628 20.6377 32.3463 21.1769 32.0022 21.7577C31.966 21.8199 31.9297 21.8614 31.9116 21.9236C31.6762 22.3385 31.4951 22.774 31.3321 23.2096C31.3683 23.2096 31.3683 23.2096 31.3683 23.2303Z" fill="#E8F3FB"/>
<path d="M49.4578 28.1677C49.983 27.7113 50.5263 27.2135 50.979 26.6535L50.9971 26.6328C51.1239 26.4876 51.1782 26.1765 51.0153 26.0313C48.5523 23.7082 45.7996 21.7585 42.739 20.6592C40.421 19.8295 37.9761 19.5599 35.5494 19.871C34.988 19.954 34.4447 20.0577 33.9014 20.1821C33.4668 20.5347 33.0865 20.9288 32.7605 21.3851C33.4306 21.157 34.1187 20.9703 34.825 20.8459C35.8754 20.6384 36.9439 20.5555 38.0305 20.597C39.2076 20.6385 40.3848 20.8251 41.5257 21.157C44.4233 21.9867 47.0673 23.6252 49.4397 25.6579C49.6932 25.8861 49.9468 26.1142 50.2003 26.3424C49.9106 26.6535 49.6027 26.9439 49.2948 27.2343C49.1862 27.338 49.0956 27.421 48.9869 27.5247C48.9326 27.5661 48.8783 27.6284 48.824 27.6699C48.7877 27.6906 48.7696 27.7321 48.7334 27.7528C48.7153 27.7528 48.7153 27.7736 48.6972 27.7736C48.4436 27.981 48.172 28.2091 47.9004 28.3958C47.2665 28.8729 46.6146 29.3084 45.9445 29.7025C45.6366 29.8892 45.3287 30.0344 45.0209 30.2003C44.876 30.6152 44.6949 30.9885 44.4776 31.3619C44.8941 31.1752 45.2925 30.9885 45.6909 30.7811C47.0311 30.0759 48.2988 29.184 49.4578 28.1677Z" fill="#E8F3FB"/>
<path d="M44.5683 30.1393C44.9124 29.3926 45.1478 28.5836 45.2746 27.754C45.3471 27.2977 45.3833 26.8413 45.4014 26.385C45.4195 25.2442 45.2565 24.1035 44.8943 23.0456C44.5502 22.8382 44.2061 22.6723 43.8439 22.5063C44.2242 23.336 44.4778 24.2279 44.6045 25.182C44.6589 25.5761 44.6589 25.9702 44.6589 26.3643C44.6227 27.9199 44.188 29.3926 43.4455 30.6371C42.6668 31.9645 41.5259 33.0223 40.1676 33.5824C40.1133 33.6031 40.059 33.6238 40.0046 33.6446C38.6102 34.1839 37.1071 34.2254 35.7126 33.7276C35.4591 33.6446 35.2236 33.5409 34.9882 33.4164C34.4449 33.1468 33.9378 32.7942 33.4851 32.3793C32.978 32.2342 32.4528 32.0682 31.9639 31.8816C32.2355 32.2342 32.5072 32.566 32.815 32.8564C33.304 33.3335 33.8473 33.7483 34.4087 34.0594C35.8756 34.8683 37.5236 35.1172 39.1173 34.8061C40.2763 34.578 41.3629 34.0179 42.2865 33.2298C43.2463 32.3793 44.025 31.3423 44.5683 30.1393Z" fill="#E8F3FB"/>
</svg>
