<svg width="38" height="50" viewBox="0 0 38 50" fill="none" xmlns="http://www.w3.org/2000/svg">
<path d="M18.9045 17.0421C18.0655 17.0222 17.2995 16.723 16.6611 16.2443V22.1677L21.3302 24.202V16.2543C20.6462 16.7729 19.8073 17.072 18.9045 17.0421Z" fill="#06689D"/>
<path d="M21.33 0L18.9954 2.55282L16.6609 0H0V5.10564V8.96479L4.56875 5.10564H16.6609V8.90496C17.3449 8.37644 18.1929 8.07729 19.0957 8.1072C19.9347 8.12715 20.7007 8.41633 21.3391 8.90496V5.10564H33.4312L38 8.96479V5.10564V0H21.33Z" fill="#06689D"/>
<path d="M25.9806 12.0866C26.1082 12.2063 26.1903 12.3658 26.1994 12.5553C26.2086 12.7547 26.1447 12.9542 26.0171 13.1037L26.0079 13.1137C25.7526 13.4129 25.4608 13.6622 25.1872 13.9015C25.0413 14.0212 24.8954 14.1408 24.7495 14.2505H30.677V28.1016L33.8414 29.4877V14.2505V10.7903H24.3391C24.8863 11.1692 25.4425 11.598 25.9806 12.0866Z" fill="#06689D"/>
<path d="M33.8419 31.4322L7.63313 20.2038V14.2505H13.4421C12.977 13.9314 12.5211 13.5824 12.0651 13.1935C11.7915 12.9641 11.7186 12.5653 11.8918 12.2561C11.9101 12.2262 11.9283 12.1963 11.9557 12.1664V12.1564L11.9921 12.1165C12.2566 11.8074 12.5484 11.5581 12.8311 11.3188C13.0591 11.1293 13.2871 10.9498 13.5151 10.7903H7.63313H4.46875V14.2505L4.47787 22.5671L30.6775 33.6659V36.8769L21.3394 44.2262V31.7413L16.6703 29.7569V44.1664L7.64225 38.2131V26.0274L4.47787 24.751V40.1277V40.1776L16.4423 48.0754L16.415 48.0953L19.3605 50L33.8328 38.6519L33.8054 38.612H33.8328V31.4322H33.8419Z" fill="#06689D"/>
<path d="M15.7955 11.1684C15.3942 12.2653 15.4854 13.5417 16.0508 14.5588C15.8593 14.489 15.6769 14.3993 15.5037 14.2896C15.4763 14.2298 15.4581 14.1699 15.4307 14.1101C15.2119 13.5018 15.1298 12.8337 15.1845 12.1755C15.2301 11.667 15.3669 11.1684 15.5766 10.7097C15.5858 10.6797 15.604 10.6498 15.6131 10.6299C15.6131 10.6299 15.6131 10.6299 15.604 10.6299C15.3669 10.7396 15.1298 10.8592 14.8836 10.9988C14.5462 11.1883 14.2087 11.3977 13.8896 11.637C13.7528 11.7368 13.616 11.8365 13.4883 11.9462C13.4792 11.9561 13.4701 11.9661 13.461 11.9661C13.4427 11.9761 13.4336 11.996 13.4154 12.006C13.388 12.026 13.3606 12.0559 13.3333 12.0758C13.2786 12.1257 13.2239 12.1656 13.1691 12.2154C13.0141 12.355 12.85 12.4946 12.7041 12.6542C12.8226 12.7539 12.9412 12.8536 13.0688 12.9533C14.2908 13.9107 15.6496 14.6885 17.1178 15.0774C18.2212 15.3666 19.3976 15.4264 20.501 15.2369C20.8749 15.1671 21.2488 15.0774 21.6136 14.9577C21.4403 15.217 21.2306 15.4064 21.0117 15.5461C20.7381 15.6059 20.4646 15.6557 20.1819 15.6956C18.9599 15.8452 17.7197 15.7156 16.5433 15.3267C15.0021 14.8281 13.5886 13.9306 12.3211 12.8437C12.239 12.7738 12.2025 12.6642 12.2572 12.5644C12.2663 12.5545 12.2755 12.5445 12.2846 12.5345C12.2846 12.5345 12.2846 12.5345 12.2937 12.5245L12.3028 12.5146C12.5399 12.2354 12.8135 11.996 13.0871 11.7667C13.6889 11.2581 14.3364 10.8193 15.0295 10.4703C15.3304 10.3207 15.6313 10.1811 15.9323 10.0714C15.987 9.99167 16.0417 9.9119 16.0964 9.84209C16.2697 9.62271 16.4612 9.42327 16.6709 9.25375C16.8898 9.07425 17.1178 8.92467 17.364 8.80501C17.4552 8.75515 17.5464 8.71526 17.6376 8.67537C17.6832 8.65543 17.7379 8.63549 17.7835 8.61554C17.8291 8.5956 17.8747 8.58562 17.9203 8.57565C18.0115 8.54574 18.1027 8.51582 18.203 8.49588C18.9234 8.32635 19.6894 8.37621 20.3916 8.67537C20.6196 8.77509 20.8293 8.88478 21.03 9.02439L21.112 9.08422C21.2397 9.17397 21.3674 9.27369 21.4768 9.38338C21.6136 9.51302 21.7504 9.65263 21.8689 9.8022C21.8598 9.8022 21.8598 9.8022 21.8507 9.79223C21.6227 9.72243 21.3947 9.6626 21.1485 9.62271C20.8385 9.35347 20.4919 9.13408 20.1089 8.99448C20.1089 8.99448 20.0451 8.97453 20.0177 8.96456C19.3155 8.72523 18.5404 8.74518 17.8473 9.00445C17.8382 9.00445 17.8291 9.01442 17.82 9.01442C17.519 9.13408 17.2363 9.29363 16.9719 9.49307C16.9354 9.52299 16.8989 9.5529 16.8624 9.58282C16.8442 9.60276 16.8169 9.62271 16.7986 9.64265C16.7713 9.6626 16.753 9.68254 16.7348 9.70249C16.4977 9.92187 16.2879 10.1811 16.1147 10.4604C16.0964 10.4903 16.0782 10.5102 16.0691 10.5401C15.9505 10.7396 15.8593 10.949 15.7773 11.1584C15.7955 11.1584 15.7955 11.1584 15.7955 11.1684Z" fill="#06689D"/>
<path d="M24.9046 13.5423C25.169 13.3229 25.4426 13.0836 25.6706 12.8143L25.6797 12.8043C25.7435 12.7345 25.7709 12.585 25.6888 12.5152C24.4486 11.3983 23.0625 10.4609 21.5213 9.93242C20.354 9.53354 19.1229 9.40391 17.901 9.55349C17.6183 9.59337 17.3447 9.64323 17.0711 9.70307C16.8522 9.87259 16.6607 10.0621 16.4966 10.2814C16.834 10.1717 17.1805 10.082 17.5362 10.0222C18.0651 9.92245 18.6031 9.88256 19.1503 9.90251C19.743 9.92245 20.3358 10.0122 20.9103 10.1717C22.3694 10.5706 23.7008 11.3584 24.8954 12.3357C25.0231 12.4454 25.1508 12.555 25.2784 12.6647C25.1325 12.8143 24.9775 12.9539 24.8225 13.0935C24.7678 13.1434 24.7222 13.1833 24.6675 13.2331C24.6401 13.2531 24.6127 13.283 24.5854 13.3029C24.5671 13.3129 24.558 13.3329 24.5398 13.3428C24.5307 13.3428 24.5307 13.3528 24.5215 13.3528C24.3939 13.4525 24.2571 13.5622 24.1203 13.652C23.8011 13.8813 23.4728 14.0907 23.1354 14.2802C22.9804 14.3699 22.8254 14.4397 22.6703 14.5195C22.5974 14.719 22.5062 14.8985 22.3968 15.0779C22.6065 14.9882 22.8071 14.8985 23.0077 14.7987C23.6826 14.4597 24.3209 14.0309 24.9046 13.5423Z" fill="#06689D"/>
<path d="M22.4425 14.4899C22.6157 14.1309 22.7343 13.742 22.7981 13.3431C22.8346 13.1237 22.8528 12.9043 22.862 12.6849C22.8711 12.1365 22.789 11.588 22.6066 11.0795C22.4333 10.9797 22.2601 10.9 22.0777 10.8202C22.2692 11.2191 22.3969 11.6479 22.4607 12.1066C22.4881 12.296 22.4881 12.4855 22.4881 12.675C22.4698 13.4229 22.251 14.1309 21.8771 14.7292C21.4849 15.3674 20.9104 15.876 20.2265 16.1452C20.1991 16.1552 20.1718 16.1652 20.1444 16.1751C19.4422 16.4344 18.6853 16.4543 17.9831 16.215C17.8555 16.1751 17.7369 16.1253 17.6184 16.0654C17.3448 15.9358 17.0895 15.7663 16.8615 15.5668C16.6061 15.497 16.3417 15.4173 16.0955 15.3275C16.2322 15.497 16.369 15.6566 16.5241 15.7962C16.7703 16.0256 17.0439 16.225 17.3266 16.3746C18.0652 16.7635 18.8951 16.8831 19.6976 16.7336C20.2812 16.6239 20.8284 16.3546 21.2934 15.9757C21.7768 15.5668 22.1689 15.0682 22.4425 14.4899Z" fill="#06689D"/>
</svg>
