<svg width="46" height="46" viewBox="0 0 46 46" fill="none" xmlns="http://www.w3.org/2000/svg">
<path fill-rule="evenodd" clip-rule="evenodd" d="M14.3465 2.01023C16.5589 1.90838 17.2643 1.88574 22.9 1.88574C28.5357 1.88574 29.2411 1.91026 31.4516 2.01023C33.6621 2.11019 35.171 2.46289 36.4913 2.97403C37.8738 3.49648 39.1281 4.31317 40.1654 5.36939C41.2217 6.40486 42.0365 7.65724 42.557 9.04165C43.07 10.3619 43.4209 11.8708 43.5227 14.0776C43.6246 16.2937 43.6472 16.9991 43.6472 22.633C43.6472 28.2687 43.6227 28.9741 43.5227 31.1865C43.4228 33.3932 43.07 34.9021 42.557 36.2224C42.0364 37.607 41.2203 38.8614 40.1654 39.8984C39.1281 40.9546 37.8738 41.7694 36.4913 42.29C35.171 42.803 33.6621 43.1539 31.4554 43.2557C29.2411 43.3576 28.5357 43.3802 22.9 43.3802C17.2643 43.3802 16.5589 43.3557 14.3465 43.2557C12.1397 43.1557 10.6308 42.803 9.31055 42.29C7.92599 41.7694 6.67154 40.9532 5.63452 39.8984C4.57901 38.8623 3.7622 37.6085 3.24104 36.2243C2.72991 34.904 2.37909 33.3951 2.27724 31.1884C2.17539 28.9722 2.15276 28.2668 2.15276 22.633C2.15276 16.9973 2.17728 16.2919 2.27724 14.0813C2.3772 11.8708 2.72991 10.3619 3.24104 9.04165C3.76297 7.6574 4.5804 6.40357 5.6364 5.3675C6.67195 4.31223 7.92515 3.49543 9.30866 2.97403C10.6289 2.46289 12.1378 2.11208 14.3446 2.01023H14.3465ZM31.2837 5.74473C29.0959 5.64476 28.4395 5.62401 22.9 5.62401C17.3605 5.62401 16.7041 5.64476 14.5162 5.74473C12.4924 5.83714 11.3947 6.17476 10.6629 6.45956C9.69531 6.83678 9.00311 7.28379 8.27696 8.00995C7.58861 8.67961 7.05887 9.49485 6.72657 10.3959C6.44177 11.1277 6.10416 12.2254 6.01174 14.2492C5.91178 16.4371 5.89103 17.0935 5.89103 22.633C5.89103 28.1725 5.91178 28.8288 6.01174 31.0167C6.10416 33.0405 6.44177 34.1382 6.72657 34.8701C7.05853 35.7697 7.58853 36.5864 8.27696 37.256C8.94653 37.9444 9.76321 38.4744 10.6629 38.8064C11.3947 39.0912 12.4924 39.4288 14.5162 39.5212C16.7041 39.6212 17.3586 39.6419 22.9 39.6419C28.4414 39.6419 29.0959 39.6212 31.2837 39.5212C33.3075 39.4288 34.4053 39.0912 35.1371 38.8064C36.1046 38.4291 36.7968 37.9821 37.523 37.256C38.2114 36.5864 38.7414 35.7697 39.0734 34.8701C39.3582 34.1382 39.6958 33.0405 39.7882 31.0167C39.8882 28.8288 39.9089 28.1725 39.9089 22.633C39.9089 17.0935 39.8882 16.4371 39.7882 14.2492C39.6958 12.2254 39.3582 11.1277 39.0734 10.3959C38.6962 9.4283 38.2491 8.7361 37.523 8.00995C36.8533 7.32165 36.0381 6.79191 35.1371 6.45956C34.4053 6.17476 33.3075 5.83714 31.2837 5.74473V5.74473ZM20.25 29.0288C21.7299 29.6448 23.3779 29.728 24.9123 29.264C26.4468 28.8 27.7725 27.8177 28.6632 26.4849C29.5539 25.152 29.9541 23.5513 29.7957 21.956C29.6372 20.3608 28.9299 18.8701 27.7944 17.7385C27.0706 17.0151 26.1954 16.4613 25.2318 16.1167C24.2683 15.7722 23.2403 15.6456 22.2219 15.746C21.2035 15.8465 20.2201 16.1715 19.3424 16.6976C18.4647 17.2238 17.7146 17.938 17.146 18.7888C16.5775 19.6396 16.2046 20.6059 16.0544 21.6182C15.9041 22.6304 15.9801 23.6633 16.277 24.6426C16.5738 25.622 17.0841 26.5233 17.7711 27.2817C18.4581 28.0401 19.3047 28.6368 20.25 29.0288ZM15.3593 15.0923C16.3496 14.102 17.5252 13.3165 18.819 12.7806C20.1128 12.2447 21.4995 11.9688 22.9 11.9688C24.3004 11.9688 25.6871 12.2447 26.981 12.7806C28.2748 13.3165 29.4504 14.102 30.4406 15.0923C31.4309 16.0825 32.2164 17.2582 32.7523 18.552C33.2883 19.8458 33.5641 21.2325 33.5641 22.633C33.5641 24.0334 33.2883 25.4201 32.7523 26.7139C32.2164 28.0078 31.4309 29.1834 30.4406 30.1736C28.4407 32.1735 25.7283 33.2971 22.9 33.2971C20.0717 33.2971 17.3592 32.1735 15.3593 30.1736C13.3594 28.1737 12.2359 25.4613 12.2359 22.633C12.2359 19.8047 13.3594 17.0922 15.3593 15.0923V15.0923ZM35.9292 13.557C36.1746 13.3255 36.3711 13.0471 36.507 12.7384C36.6428 12.4296 36.7154 12.0967 36.7203 11.7594C36.7252 11.4221 36.6624 11.0872 36.5356 10.7746C36.4088 10.462 36.2205 10.178 35.982 9.93951C35.7434 9.70097 35.4595 9.51272 35.1469 9.3859C34.8343 9.25907 34.4994 9.19626 34.1621 9.20118C33.8248 9.2061 33.4919 9.27864 33.1831 9.41452C32.8743 9.5504 32.596 9.74686 32.3645 9.99225C31.9143 10.4695 31.6678 11.1034 31.6774 11.7594C31.6869 12.4154 31.9518 13.0419 32.4157 13.5058C32.8796 13.9697 33.5061 14.2345 34.1621 14.2441C34.8181 14.2537 35.452 14.0072 35.9292 13.557V13.557Z" fill="#D9D9D9"/>
</svg>
