<svg width="47" height="46" viewBox="0 0 47 46" fill="none" xmlns="http://www.w3.org/2000/svg">
<path fill-rule="evenodd" clip-rule="evenodd" d="M2.68617 5.35242C2.68617 4.433 3.05141 3.55124 3.70154 2.90111C4.35166 2.25098 5.23342 1.88575 6.15284 1.88575H40.7102C41.1658 1.885 41.6171 1.97414 42.0383 2.14804C42.4594 2.32195 42.8421 2.57721 43.1645 2.89922C43.4868 3.22123 43.7425 3.60366 43.9169 4.02462C44.0912 4.44557 44.1809 4.89678 44.1806 5.35242V39.9097C44.1811 40.3655 44.0917 40.8168 43.9176 41.238C43.7435 41.6591 43.4881 42.0418 43.1659 42.3642C42.8438 42.6865 42.4612 42.9421 42.0401 43.1165C41.6191 43.2908 41.1678 43.3804 40.7121 43.3802H6.15284C5.69743 43.3802 5.24649 43.2905 4.82577 43.1161C4.40505 42.9418 4.0228 42.6863 3.70087 42.3642C3.37893 42.042 3.12362 41.6597 2.94951 41.2388C2.77541 40.818 2.68592 40.367 2.68617 39.9116V5.35242ZM19.1104 17.7064H24.7292V20.5281C25.5402 18.906 27.6149 17.4462 30.7326 17.4462C36.7097 17.4462 38.1262 20.6771 38.1262 26.6051V37.5861H32.0774V27.9556C32.0774 24.5794 31.2664 22.6745 29.2068 22.6745C26.3493 22.6745 25.1611 24.7284 25.1611 27.9556V37.5861H19.1104V17.7064ZM8.73682 37.3277H14.7875V17.4462H8.73682V37.3258V37.3277ZM15.6532 10.9617C15.6646 11.4798 15.5724 11.9949 15.382 12.4769C15.1917 12.9588 14.9069 13.3979 14.5446 13.7683C14.1822 14.1387 13.7495 14.433 13.2719 14.634C12.7942 14.8349 12.2813 14.9384 11.7631 14.9384C11.2449 14.9384 10.7319 14.8349 10.2543 14.634C9.77663 14.433 9.34393 14.1387 8.98157 13.7683C8.61921 13.3979 8.33449 12.9588 8.14412 12.4769C7.95375 11.9949 7.86157 11.4798 7.87298 10.9617C7.89537 9.94482 8.31505 8.97713 9.04215 8.26587C9.76925 7.55461 10.7459 7.15633 11.7631 7.15633C12.7802 7.15633 13.7569 7.55461 14.484 8.26587C15.2111 8.97713 15.6308 9.94482 15.6532 10.9617V10.9617Z" fill="#F8F8F8"/>
</svg>
