<svg width="46" height="46" viewBox="0 0 46 46" fill="none" xmlns="http://www.w3.org/2000/svg">
<g clip-path="url(#clip0_92_50)">
<path d="M44.3904 12.2725C44.1341 11.3582 43.6348 10.5304 42.9457 9.87714C42.237 9.20381 41.3685 8.72215 40.4221 8.47765C36.8799 7.54402 22.6888 7.54402 22.6888 7.54402C16.7727 7.47671 10.8581 7.77276 4.97825 8.43049C4.03178 8.69306 3.16487 9.18548 2.45463 9.86394C1.75677 10.5354 1.25129 11.3634 0.987237 12.2706C0.352925 15.6878 0.0447325 19.1575 0.066815 22.6329C0.0441817 26.1052 0.351618 29.5738 0.987237 32.9952C1.24563 33.8987 1.74923 34.7229 2.44897 35.3887C3.14872 36.0545 4.0201 36.5354 4.97825 36.7901C8.56752 37.7218 22.6888 37.7218 22.6888 37.7218C28.6125 37.7892 34.5347 37.4932 40.4221 36.8353C41.3685 36.5908 42.237 36.1092 42.9457 35.4358C43.6346 34.7827 44.1333 33.9548 44.3885 33.0405C45.0394 29.6246 45.3559 26.1535 45.3335 22.6763C45.3824 19.1844 45.0664 15.6969 44.3904 12.2706V12.2725ZM18.1773 29.091V16.1768L29.9843 22.6348L18.1773 29.091Z" fill="#F8F8F8"/>
</g>
<defs>
<clipPath id="clip0_92_50">
<rect width="45.2667" height="45.2667" fill="white" transform="translate(0.0666504)"/>
</clipPath>
</defs>
</svg>
