<svg width="38" height="40" viewBox="0 0 38 40" fill="none" xmlns="http://www.w3.org/2000/svg">
<path d="M32.4415 8.74116C32.1551 8.60358 31.8762 8.45277 31.606 8.2893C30.8207 7.80718 30.1007 7.23916 29.4615 6.59746C27.8602 4.89686 27.2623 3.17174 27.0435 1.96504H27.051C26.8681 0.96149 26.9435 0.313477 26.9567 0.313477H19.6669V26.4845C19.6669 26.8348 19.6669 27.1833 19.6518 27.5266C19.6518 27.5686 19.6462 27.6071 19.6443 27.6544C19.6443 27.6719 19.6443 27.6929 19.6386 27.7122V27.728C19.5621 28.6667 19.2382 29.5737 18.6955 30.3689C18.1529 31.1642 17.408 31.8234 16.5265 32.2886C15.6069 32.7744 14.5668 33.0291 13.5088 33.0277C10.1138 33.0277 7.36004 30.4566 7.36004 27.2814C7.36004 24.1043 10.1138 21.5333 13.5088 21.5333C14.1519 21.5333 14.7913 21.6279 15.4024 21.8135L15.4118 14.9201C13.5559 14.6977 11.6705 14.8351 9.87468 15.3234C8.07881 15.8117 6.41146 16.6405 4.97788 17.7573C3.72146 18.7706 2.66511 19.9796 1.85637 21.3301C1.54893 21.8223 0.38709 23.8031 0.247517 27.0152C0.15887 28.8366 0.749223 30.7281 1.03025 31.5075V31.525C1.20566 31.9838 1.89221 33.5531 3.00878 34.8754C3.9092 35.9367 4.97307 36.8691 6.16613 37.6426V37.6251L6.18311 37.6426C9.71014 39.8668 13.6238 39.7215 13.6238 39.7215C14.3009 39.6952 16.5699 39.7215 19.1463 38.5883C22.0038 37.3308 23.6296 35.4586 23.6296 35.4586C24.6691 34.3397 25.4957 33.0645 26.074 31.6879C26.7342 30.0766 26.953 28.1465 26.953 27.3759V13.4892C27.0416 13.5382 28.2204 14.2615 28.2204 14.2615C28.2204 14.2615 29.9179 15.2721 32.5641 15.9289C34.4616 16.3965 37.021 16.4963 37.021 16.4963V9.77623C36.1251 9.8673 34.305 9.60459 32.4397 8.74291L32.4415 8.74116Z" fill="#F8F8F8"/>
</svg>
