<svg width="46" height="46" viewBox="0 0 46 46" fill="none" xmlns="http://www.w3.org/2000/svg">
<g clip-path="url(#clip0_92_44)">
<path fill-rule="evenodd" clip-rule="evenodd" d="M45.8 22.6333C45.8 35.1326 35.6659 45.2667 23.1667 45.2667C10.6674 45.2667 0.533325 35.1326 0.533325 22.6333C0.533325 10.1341 10.6674 0 23.1667 0C35.6659 0 45.8 10.1341 45.8 22.6333ZM23.9777 16.7091C21.7766 17.6238 17.3763 19.5194 10.7787 22.3938C9.70737 22.8201 9.14531 23.2369 9.09438 23.6443C9.00762 24.3346 9.87146 24.6062 11.0446 24.974C11.2049 25.0249 11.3709 25.0758 11.5407 25.1324C12.6969 25.5078 14.251 25.9472 15.0583 25.9642C15.792 25.9793 16.6105 25.6775 17.514 25.0589C23.6778 20.8962 26.8597 18.7932 27.0596 18.7479C27.2011 18.7159 27.3972 18.6744 27.5292 18.7932C27.6613 18.9101 27.6481 19.1327 27.6349 19.1931C27.5481 19.5571 24.1644 22.705 22.4103 24.3346C21.8634 24.842 21.4767 25.2022 21.3975 25.2852C21.2202 25.4682 21.0391 25.6436 20.8656 25.8114C19.7905 26.845 18.987 27.6221 20.9109 28.8896C21.8351 29.4988 22.5744 30.0024 23.3119 30.5041C24.1173 31.0529 24.9207 31.5999 25.9619 32.2827C26.2259 32.4562 26.4787 32.6354 26.7258 32.8108C27.6631 33.4804 28.5062 34.0801 29.5474 33.9858C30.1509 33.9293 30.7771 33.3615 31.094 31.6659C31.8428 27.656 33.3177 18.9724 33.6591 15.3926C33.6799 15.0953 33.6672 14.7967 33.6214 14.5023C33.5939 14.2645 33.4781 14.0457 33.297 13.8893C33.0272 13.6686 32.6085 13.6215 32.4199 13.6253C31.5693 13.6404 30.2641 14.0949 23.9777 16.7091V16.7091Z" fill="#F8F8F8"/>
</g>
<defs>
<clipPath id="clip0_92_44">
<rect width="45.2667" height="45.2667" fill="white" transform="translate(0.533325)"/>
</clipPath>
</defs>
</svg>
